HIERARCHY
ROOT hip
{
	OFFSET 0.000000 0.000000 0.000000 
	CHANNELS 6 Xposition Yposition Zposition Xrotation Zrotation Yrotation
	JOINT abdomen
	{
		OFFSET 0.000000 3.402643 0.000000 
		CHANNELS 3 Xrotation Zrotation Yrotation
		JOINT chest
		{
			OFFSET 0.000000 8.438565 -0.680529 
			CHANNELS 3 Xrotation Zrotation Yrotation
			JOINT neck
			{
				OFFSET 0.000000 10.207942 -0.272212 
				CHANNELS 3 Xrotation Zrotation Yrotation
				JOINT head
				{
					OFFSET 0.000000 3.130431 0.000000 
					CHANNELS 3 Xrotation Zrotation Yrotation
					End Site
					{
						OFFSET 0.000000 3.130435 0.000000 
					}
				}
			}
			JOINT lCollar
			{
				OFFSET 3.470700 6.669187 -0.816635 
				CHANNELS 3 Yrotation Zrotation Xrotation
				JOINT lShldr
				{
					OFFSET 3.198488 0.000000 0.000000 
					CHANNELS 3 Zrotation Yrotation Xrotation
					JOINT lForeArm
					{
						OFFSET 10.139888 0.000000 0.000000 
						CHANNELS 3 Yrotation Zrotation Xrotation
						JOINT lHand
						{
							OFFSET 8.370511 0.000000 0.000000 
							CHANNELS 3 Zrotation Yrotation Xrotation
							End Site
							{
								OFFSET 4.083176 0.000000 0.000000 
							}
						}
					}
				}
			}
			JOINT rCollar
			{
				OFFSET -3.470700 6.669187 -0.816635 
				CHANNELS 3 Yrotation Zrotation Xrotation
				JOINT rShldr
				{
					OFFSET -3.198488 0.000000 0.000000 
					CHANNELS 3 Zrotation Yrotation Xrotation
					JOINT rForeArm
					{
						OFFSET -10.139888 0.000000 0.000000 
						CHANNELS 3 Yrotation Zrotation Xrotation
						JOINT rHand
						{
							OFFSET -8.370511 0.000000 0.000000 
							CHANNELS 3 Zrotation Yrotation Xrotation
							End Site
							{
								OFFSET -4.083176 0.000000 0.000000 
							}
						}
					}
				}
			}
		}
	}
	JOINT lThigh
	{
		OFFSET 5.308129 -1.633274 1.361059 
		CHANNELS 3 Xrotation Zrotation Yrotation
		JOINT lShin
		{
			OFFSET -2.041588 -20.007561 0.000000 
			CHANNELS 3 Xrotation Zrotation Yrotation
			JOINT lFoot
			{
				OFFSET 0.000000 -19.190928 -1.224953 
				CHANNELS 3 Xrotation Yrotation Zrotation
				End Site
				{
					OFFSET 0.000000 -2.449906 4.627600 
				}
			}
		}
	}
	JOINT rThigh
	{
		OFFSET -5.308129 -1.633274 1.361059 
		CHANNELS 3 Xrotation Zrotation Yrotation
		JOINT rShin
		{
			OFFSET 2.041588 -20.007561 0.000000 
			CHANNELS 3 Xrotation Zrotation Yrotation
			JOINT rFoot
			{
				OFFSET 0.000000 -19.190928 -1.224953 
				CHANNELS 3 Xrotation Yrotation Zrotation
				End Site
				{
					OFFSET 0.000000 -2.449906 4.627600 
				}
			}
		}
	}
}
MOTION
Frames: 8
Frame Time: 0.016667
-2.011378 50.576313 -0.595528 -4.931641 -0.712891 -164.658203 19.560549 0.947266 0.547036 -10.068359 -1.738281 -1.396484 51.064453 8.115234 2.472081 -45.117188 -1.708984 -3.310838 11.455077 30.000000 -2.099610 -126.503914 1.679687 -27.910154 -114.150391 1.191406 -2.812703 -34.853516 36.718754 -29.228514 -4.228516 -30.000000 2.109375 103.320313 -26.826172 -12.631360 115.888664 -1.279297 -2.968750 13.916016 -26.933592 -35.229034 -10.486539 16.235878 11.238645 29.737749 -4.527140 -2.857653 -9.811090 -11.387306 -4.614453 -0.257067 -12.960465 -25.875231 28.184612 4.515679 2.514341 -18.194847 -10.272897 9.594911 
-1.940593 50.521172 -0.629575 -4.052734 -1.064453 -165.166016 19.560549 0.947266 0.547036 -10.068359 -1.562500 -1.191406 51.064453 8.115234 2.472081 -45.839844 -2.011719 -3.134766 10.976563 30.000000 -1.635742 -121.552734 0.380859 -29.814480 -108.173828 0.957031 -2.802897 -35.185547 39.306637 -34.648438 -4.199219 -30.000000 2.211916 98.105469 -23.398439 -10.843722 109.570313 -0.839844 -3.007812 15.634764 -29.355471 -40.966793 -9.392484 16.185333 11.010408 29.375807 -4.546360 -2.648176 -9.460917 -10.952832 -4.966576 0.614247 -12.830223 -25.778124 28.359961 4.505705 2.361220 -18.755117 -10.008834 9.512081 
-1.902685 50.536919 -0.738706 -2.832031 -1.240234 -166.064651 19.560549 0.947266 0.547036 -9.892579 -1.386719 -0.810547 51.064453 8.115234 2.472081 -45.869141 -2.353516 -2.637120 11.093750 30.000000 -1.499023 -117.119141 -0.722656 -31.884892 -105.537109 0.859375 -2.802734 -36.669918 40.498047 -38.733898 -4.707031 -30.000000 1.962891 93.212891 -20.888674 -10.332030 106.591797 -0.537109 -3.173833 17.197266 -30.361328 -45.302731 -7.841530 16.561161 11.230219 29.375473 -4.546336 -2.657879 -10.253007 -10.695361 -5.602345 1.288470 -12.939277 -25.491653 28.335005 4.076787 2.404844 -17.694599 -9.587906 9.305271 
-1.889389 50.544800 -1.011571 -1.601563 -1.582031 -166.962891 19.560549 0.947266 0.547036 -9.892578 -1.210938 -0.781456 51.064453 8.115234 2.472081 -45.195313 -2.763672 -2.167969 11.650391 30.000000 -1.787109 -115.175789 -1.591797 -33.398438 -111.328125 1.435547 -2.763917 -38.603512 38.330078 -38.665821 -6.054688 -30.000000 1.166994 89.843750 -20.839844 -11.279296 112.197266 -1.132813 -3.134766 17.587889 -29.462889 -44.589840 -5.916710 16.584593 11.662406 29.748001 -4.629663 -2.747678 -11.264427 -10.260847 -5.970373 2.643185 -12.866714 -24.913069 28.524258 4.057762 2.434229 -17.692057 -9.600225 9.320110 
-1.891563 50.544800 -1.448570 -0.195313 -1.943359 -168.046875 19.560549 0.947266 0.547036 -9.541017 -1.210938 -0.781250 51.064453 8.115234 2.472081 -42.070316 -3.525390 -1.357422 12.607423 30.000000 -2.270508 -113.750008 -2.382813 -35.507813 -120.644524 1.611328 -2.568634 -40.703125 34.423828 -36.611328 -7.998046 -30.000000 -0.034178 86.708984 -21.875000 -12.825903 121.318352 -1.689453 -3.154297 16.708986 -27.968750 -41.967468 -3.749955 16.642071 11.723364 29.353207 -4.633882 -2.676652 -11.419837 -9.542697 -6.354650 4.175254 -12.825809 -24.384535 28.523912 4.057790 2.443947 -17.532711 -9.134882 9.047543 
-1.911640 50.521172 -1.974751 1.230469 -2.119127 -169.170349 19.560549 0.947266 0.547036 -9.189452 -1.376953 -0.820547 51.064453 8.115234 2.472081 -36.679691 -4.765625 -0.341797 13.710938 30.000000 -2.890625 -110.585930 -2.988281 -36.670433 -123.632820 1.718750 -2.705078 -42.275387 33.066402 -36.166542 -9.853516 -30.000000 -0.888672 82.265625 -22.119143 -12.464615 125.361336 -1.865234 -2.919604 16.250000 -27.724611 -41.244778 -1.133052 16.640612 12.252304 29.383289 -4.630984 -2.678384 -12.578635 -8.996124 -7.007060 6.024750 -12.850835 -23.691444 28.524504 4.053217 2.442880 -16.875547 -8.575801 8.896200 
-1.940628 50.521172 -2.428577 2.636719 -2.460918 -170.293304 19.560549 0.947266 0.547036 -8.837890 -1.552734 -1.045187 51.064453 8.115234 2.472081 -31.455076 -6.074218 0.604436 15.078124 30.000000 -3.779297 -104.902344 -3.886719 -37.070972 -116.611328 1.279297 -2.802942 -42.509766 35.322266 -38.080292 -11.230470 -30.000000 -1.777344 74.912109 -20.517580 -9.472656 120.634758 -1.318359 -2.958984 16.787111 -29.726564 -43.813438 1.364792 16.516033 12.923808 29.420275 -4.651379 -2.676866 -13.292835 -8.370370 -7.619263 7.556783 -13.172179 -22.626026 29.037849 4.057609 2.454814 -16.293087 -8.427266 8.675345 
-1.950522 50.442387 -2.946896 4.042969 -2.646484 -171.416016 19.560549 0.947266 0.547036 -8.476563 -1.718750 -1.083984 51.064453 8.115234 2.472081 -28.818357 -6.523438 1.073110 16.191406 30.000000 -4.384766 -97.890625 -5.185547 -37.441406 -105.009766 0.839844 -2.792969 -42.705082 38.857422 -41.406250 -12.578125 -30.000000 -2.402344 66.523430 -17.304689 -5.205079 112.373047 -1.152344 -3.125000 16.992188 -32.988281 -47.089844 3.150601 16.602396 13.307290 29.956217 -4.563507 -2.709525 -14.012745 -7.736374 -8.025485 8.962629 -13.260907 -22.256941 29.576363 3.921075 2.482645 -16.211075 -7.549397 8.687143 
